<?xml version="1.0" encoding="UTF-8"?><svg id="a" xmlns="http://www.w3.org/2000/svg" viewBox="0 0 6900 6900">
<style>
    path {
        fill: #000;
    }
    @media (prefers-color-scheme: dark) {
        path {
            opacity: 0.5;
            fill: #fff;
        }
    }
</style><path d="m5887.64,5095.52c13.02-489.07-559.05-1008.22-599.69-1044.38-160.65-142.92-314.37-274.09-555.96-324.33-578.49-120.29-1067.18,359.83-1143.16,434.48-330.53,324.73-421.06,711.06-449.77,887.31-662.48-562.6-940.91-1408.07-707.97-2147.91,215.65-684.94,789.38-1024.63,947.58-1111.54,630.94,709.02,838.21,883.68,874.55,856.72,36.04-26.75-77.31-265.71-591.36-1036.22,194.76-87.58,850.75-353.58,1647.21-146.2,1069.42,278.45,1524.97,1184.59,1590.04,1319.68-5.75-1.38-14.2-3.37-24.42-5.65-70.23-15.64-427.51-90.74-818.37,25.31-268.93,79.84-693.18,197.34-749.62,501.79-54.85,295.89,274.24,563.93,315.46,596.64,354.33,237.38,802.14,631.3,823.01,1129.77,40.03,956.17-1509.95,1840.85-2778.93,1867.86C2023.44,6933.81,26.78,5565.65.75,3495.02-24.95,1451.09,1963.1-12.02,3567.93.58c1472.24,11.56,2569.2,1264.66,2537.67,1313.29-31,47.81-1145.06-1080.19-2540.36-975.02C2335.78,431.51,717.09,1500.59,600.09,3194.57c-123.08,1781.9,1487.04,3222.13,2932.58,3279.86,1074.26,42.9,2336-666.6,2354.96-1378.91Z" stroke="#000" stroke-miterlimit="10"/></svg>